<svg width="82" height="75" viewBox="0 0 82 75" fill="none" xmlns="http://www.w3.org/2000/svg">
<g clip-path="url(#clip0_84_2717)">
<path d="M57.8373 28.8332C56.8431 33.1962 54.5975 36.8657 51.6617 40.1859C50.1661 41.8771 48.6115 43.5522 47.5361 45.556C46.9749 46.6015 46.5657 47.723 46.3095 48.8813C46.0541 50.0395 46.1165 51.1987 45.9439 52.3586C45.6501 54.3386 43.7709 54.6614 42.0754 54.6512C39.6752 54.6358 37.2707 54.3941 34.9141 53.9354C34.7108 54.0148 34.4323 53.9508 34.3956 53.7031C34.2273 52.5798 34.0642 51.4549 33.8395 50.3411C33.3757 48.0451 32.6155 45.8277 31.1583 43.963C29.8531 42.294 28.2234 40.9196 26.8029 39.3556C24.0644 36.3455 22.4868 32.4437 22.1528 28.4009C21.8479 24.7297 22.5876 20.8928 24.5257 17.7324C26.5902 14.3661 29.9274 12.194 33.6618 11.0665C37.7815 9.82368 42.5016 9.45895 46.7596 10.0466C50.8511 10.6104 54.9485 12.5732 56.9037 16.3905C58.8222 20.1369 58.7513 24.8186 57.8373 28.8332Z" fill="#AF95E2"/>
<path d="M45.9217 42.2231C44.4098 41.6867 44.1527 39.5384 42.7323 41.1161C42.5802 41.2852 41.2844 48.0408 41.3656 48.3475C42.5349 52.8028 48.2075 43.0337 45.9217 42.2231ZM44.0998 14.4601C44.9736 13.9604 47.8726 14.3482 48.5739 13.3292C49.6903 11.7063 47.191 11.0785 45.9499 10.9332C42.2915 10.5062 42.7784 15.2152 44.0998 14.4601ZM55.9257 21.4096C55.9343 26.9514 54.108 33.7267 50.3489 37.9557C49.2632 39.1763 47.0595 41.2681 45.6663 39.3454C44.866 38.2418 45.9397 32.9332 45.8961 31.6605C45.7816 28.3061 45.0325 25.1141 44.6482 21.8008C44.3278 19.0393 44.7284 18.145 47.2995 17.0371C52.1161 14.9598 55.9163 15.3621 55.9257 21.4096Z" fill="#E3D9F7"/>
<mask id="mask0_84_2717" style="mask-type:luminance" maskUnits="userSpaceOnUse" x="32" y="50" width="16" height="17">
<path d="M32.144 50.728H47.888V66.8H32.144V50.728Z" fill="white"/>
</mask>
<g mask="url(#mask0_84_2717)">
<path d="M47.7607 58.4275C47.7138 59.4602 47.1124 60.4766 46.1131 60.6705C46.4675 61.6733 45.9055 62.747 45.0394 63.3611C45.0633 64.3076 44.819 65.172 43.9922 65.8186C43.0406 66.5609 41.7525 66.777 40.5763 66.7864C38.9039 66.7992 35.3104 66.0031 35.4659 63.8113C34.8936 63.6678 34.3298 63.4577 33.9079 63.0579C33.4714 62.6445 33.2604 62.0577 33.5073 61.4837C33.6704 61.1036 33.9617 60.8482 34.2991 60.656C33.3091 60.2041 32.5011 59.4149 32.349 58.2626C32.2183 57.2735 32.7428 56.3134 33.6226 55.9239C32.8683 55.0296 32.1859 54.0072 32.3242 52.7849C32.4148 51.9854 32.9358 51.2977 33.6516 51.0355C33.6926 50.9646 33.7635 50.9151 33.86 50.927C33.9096 50.933 33.9591 50.939 34.0087 50.945C34.147 50.9236 34.2905 50.9168 34.4383 50.9279C34.528 50.9347 34.598 50.9697 34.651 51.0201C36.1765 51.1901 37.7064 51.3012 39.2438 51.2875C40.9966 51.2721 42.6947 51.0244 44.4312 50.8348C45.5835 50.7084 46.8835 51.0073 47.2235 52.2698C47.5207 53.3776 47.2072 54.5282 46.5794 55.4516C47.402 56.199 47.812 57.306 47.7607 58.4275Z" fill="#CAE894"/>
</g>
<mask id="mask1_84_2717" style="mask-type:luminance" maskUnits="userSpaceOnUse" x="8" y="-3" width="63" height="69">
<path d="M8.25467 -2.2645H70.5901V65.1293H8.25467V-2.2645Z" fill="white"/>
</mask>
<g mask="url(#mask1_84_2717)">
<path d="M44.4987 63.6097C43.3054 64.4288 41.9874 64.4997 40.5806 64.4963C39.0209 64.4938 37.5893 64.2794 36.086 63.8822C35.8647 63.8232 35.7118 64.1504 35.9262 64.2606C37.3988 65.0199 39.2284 65.0268 40.8454 65.0413C42.1924 65.0532 43.7923 65.031 44.7968 63.9958C44.9847 63.8027 44.7353 63.4457 44.4987 63.6097ZM45.4169 60.4296C44.5986 60.5407 43.7982 60.8516 42.9817 61.0019C42.0959 61.1651 41.199 61.2582 40.2996 61.2855C38.5537 61.3368 36.8334 61.0976 35.1387 60.6919C34.8406 60.621 34.7193 61.0617 35.0123 61.1506C36.7676 61.681 38.6066 61.898 40.4388 61.8612C42.0779 61.8288 44.157 61.7117 45.6338 60.9447C45.9439 60.7841 45.7064 60.3895 45.4169 60.4296ZM40.3167 56.7268C42.0079 56.6431 44.075 56.5662 45.6321 55.8522C45.844 55.7548 45.7398 55.3943 45.5117 55.4114C44.6917 55.4721 43.8819 55.7369 43.0696 55.8718C42.1113 56.0307 41.1443 56.1392 40.174 56.1836C38.3504 56.2656 36.5951 56.0162 34.7851 55.8991C34.5288 55.8829 34.4844 56.2758 34.7253 56.3407C36.4985 56.8174 38.4956 56.8165 40.3167 56.7268ZM48.9873 28.1567C48.9574 28.0072 48.7575 27.9021 48.4517 27.8756C48.4082 27.8722 48.3646 27.8697 48.3211 27.8697C47.6309 27.8697 46.933 28.3241 46.459 28.7947C46.7929 28.9109 47.138 28.9715 47.4703 28.9715C47.8555 28.9715 48.204 28.8912 48.5064 28.7315C48.8788 28.5342 49.0172 28.301 48.9873 28.1567ZM44.8625 28.9485L44.8378 28.9399L44.8207 28.9254C44.6182 28.7537 44.4303 28.5624 44.2612 28.3582C43.9665 28.0055 43.7137 27.598 43.5087 27.1445C42.9936 27.4972 42.4059 27.6835 41.8003 27.6835C40.8497 27.6835 39.9442 27.2188 39.3421 26.4304C38.6382 27.3179 37.7832 27.8039 36.9188 27.8039C36.6036 27.8039 36.2876 27.739 35.9766 27.6108C35.8639 28.219 35.7229 28.7119 35.5376 29.1492C35.5 29.238 35.4385 29.3457 35.3727 29.4593C35.2831 29.6122 35.1353 29.8667 35.1455 29.9547C35.1601 30.0811 35.4043 30.3655 35.582 30.5731C35.7383 30.7542 35.8852 30.9259 35.9596 31.0634C36.1731 31.4597 36.361 31.915 36.531 32.454C37.1699 34.4749 37.2767 36.6676 37.3271 38.5638C37.3809 40.6326 37.3288 42.7381 37.2767 44.7745C37.2647 45.2502 37.2528 45.7252 37.2425 46.1992C37.216 47.3848 37.1802 48.6191 37.1374 49.8653C37.1349 49.9371 37.1383 50.066 37.1417 50.2283C37.1451 50.412 37.1485 50.5956 37.1494 50.775C38.1232 50.8245 39.0969 50.8655 40.0783 50.8425C41.2819 50.8143 42.4692 50.7032 43.6582 50.5751C43.5582 50.0336 43.5403 49.3178 43.5377 48.5926C43.5369 48.3867 43.5369 48.2091 43.53 48.104C43.3899 45.7781 43.3899 43.2652 43.5275 40.1936C43.5531 39.6213 43.5744 39.0464 43.5967 38.4716C43.6684 36.5958 43.7419 34.6569 43.9554 32.7786C44.034 32.0875 44.1297 31.5323 44.2569 31.0309C44.2971 30.8712 44.3859 30.6389 44.4876 30.3698C44.6353 29.9829 44.9804 29.0766 44.8625 28.9485ZM35.2924 25.9102C35.301 25.8478 35.3112 25.7829 35.3206 25.7163C35.4445 24.869 35.6316 23.5877 35.2813 22.983C35.1694 22.7891 35.0097 22.6738 34.8551 22.6738C34.7407 22.6738 34.6279 22.7344 34.5186 22.8548C34.282 23.1154 34.4297 23.6979 34.5177 24.0464L34.5357 24.1207C34.721 24.8681 34.9696 25.4566 35.2924 25.9102ZM39.4676 24.5367C39.758 24.0515 40.0766 23.4784 40.1304 22.9514C40.1535 22.7207 40.0715 22.3441 39.9272 22.1843C39.8921 22.145 39.8588 22.1254 39.8264 22.1254C39.7965 22.1254 39.711 22.145 39.5795 22.3253C39.1627 22.8941 39.266 23.7936 39.4676 24.5367ZM43.9554 25.3977C44.6592 24.4966 44.971 23.7756 44.8847 23.2537C44.8326 22.9403 44.5525 22.6661 44.2851 22.6661C44.0682 22.6661 43.9554 22.8531 43.899 23.0103C43.7094 23.5365 43.7291 24.3394 43.9554 25.3977ZM33.5952 30.0546C33.4167 29.9931 33.2288 29.9615 33.0426 29.9615C32.6915 29.9615 32.3806 30.0726 32.1508 30.2767C32.3106 30.3527 32.4788 30.3912 32.6531 30.3912C33.0152 30.3912 33.3449 30.2297 33.5952 30.0546ZM49.8773 28.0132C49.9593 28.6939 49.4417 29.5643 48.3211 29.8377C48.0751 29.8975 47.8103 29.9273 47.5309 29.9273C47.3533 29.9273 47.1688 29.9145 46.9817 29.8906C46.8664 29.8752 46.6768 29.8043 46.4564 29.7215C46.2412 29.6412 45.9465 29.5302 45.8397 29.5302C45.598 29.5985 45.2614 30.158 45.0137 32.4318L44.9983 32.571C44.3868 37.872 44.2253 43.2387 44.5192 48.5234C44.5217 48.5781 44.5371 48.7002 44.5559 48.854C44.6225 49.4083 44.6832 49.9866 44.684 50.4615C44.8924 50.4376 45.1 50.4145 45.3084 50.3915C45.6364 50.3556 45.7047 50.9048 45.3861 50.9638C43.6479 51.2875 41.8422 51.3891 40.0783 51.4225C38.3256 51.4558 36.5002 51.4455 34.7706 51.138C34.4989 51.0893 34.569 50.6563 34.8338 50.6648C35.2608 50.6785 35.6871 50.699 36.1116 50.7212C36.1142 49.8482 36.1705 48.6396 36.2773 47.0056C36.3063 46.5657 36.3286 46.218 36.3311 46.0677C36.3678 44.057 36.4003 41.6841 36.367 39.3386C36.3388 37.3458 36.2329 35.2206 35.6469 33.1886C35.6281 33.1228 35.6059 33.0408 35.5803 32.946C35.4206 32.3532 35.0473 30.966 34.5638 30.7627C34.563 30.7619 34.5536 30.7585 34.5297 30.7585C34.3862 30.7585 34.0915 30.8806 33.8062 30.9993C33.3928 31.171 32.9256 31.3649 32.5574 31.3649C32.5309 31.3649 32.5044 31.3641 32.4797 31.3615C31.9475 31.3188 31.2557 31.1001 31.0532 30.6226C30.9695 30.4262 30.9413 30.1059 31.2787 29.695C31.6699 29.2201 32.2678 28.9587 32.9623 28.9587C33.0366 28.9587 33.1101 28.9613 33.1835 28.9673C33.3449 28.9809 33.538 29.0578 33.7242 29.1321C33.8993 29.203 34.0812 29.2765 34.194 29.2765C34.2008 29.2765 34.2077 29.2756 34.2145 29.2748C34.4408 29.25 34.5715 28.9203 34.6971 28.6017L34.7723 28.4155C34.8927 28.1182 35.0584 27.7099 35.0584 27.4195C35.0593 27.0377 34.9807 26.9455 34.7919 26.7217C34.721 26.638 34.6399 26.5414 34.5468 26.4116C34.0121 25.6659 33.1869 23.7825 33.6038 22.6012C33.7661 22.1416 34.0949 21.8401 34.5826 21.7051C34.7304 21.6641 34.8722 21.6428 35.0037 21.6428C35.3172 21.6428 35.5829 21.7572 35.793 21.9827C36.4037 22.6379 36.3755 24.0652 36.3362 24.6486C36.326 24.7853 36.2816 25.021 36.2303 25.2943C36.1552 25.695 35.9988 26.5286 36.0834 26.6644C36.232 26.8737 36.5182 26.9181 36.7326 26.9181C37.1554 26.9181 37.6611 26.7473 37.9053 26.5824C38.2026 26.3817 38.5562 26.0597 38.6741 25.7932C38.8091 25.4917 38.7484 25.2926 38.6562 24.9911C38.6186 24.8656 38.5759 24.7238 38.5434 24.5589C38.3333 23.4775 38.4033 22.6234 38.7535 22.0203C39.0055 21.5847 39.5001 21.1457 40.0356 21.1457C40.2441 21.1457 40.4414 21.2106 40.6199 21.3387C41.4032 21.8965 41.1204 23.0932 40.9624 23.5817C40.8907 23.8047 40.6797 24.1318 40.4559 24.4778C40.203 24.8707 39.8554 25.408 39.8733 25.6095C39.9101 26.0264 40.8018 26.5747 41.2511 26.7012C41.3946 26.7413 41.5808 26.7635 41.7764 26.7635C42.3854 26.7635 43.0782 26.5585 43.1585 26.1092C43.2097 25.8137 43.1021 25.4011 42.9962 25.0022C42.9056 24.6588 42.8117 24.3027 42.8117 23.9935C42.8117 23.4963 42.9757 22.9232 43.2507 22.4619C43.5676 21.9306 43.9759 21.6377 44.3987 21.6377C44.7831 21.6377 45.1487 21.8726 45.4878 22.3355C45.9661 22.9898 45.9362 23.8918 45.4015 24.9433L44.7284 25.9657C44.6575 26.0554 44.5943 26.1272 44.5405 26.1887C44.3099 26.4552 44.2954 26.4705 44.4628 26.925C44.6165 27.3409 44.9625 27.7432 45.1555 27.9465C45.2648 28.061 45.4485 28.254 45.51 28.254C45.5399 28.254 45.6065 28.2088 45.6834 28.1558C45.7449 28.114 45.8175 28.0644 45.9097 28.0089C46.0917 27.9013 46.2599 27.786 46.4222 27.6749C46.892 27.3537 47.337 27.0497 48.0161 26.9617C48.1468 26.9455 48.2749 26.9369 48.3954 26.9369C49.393 26.9369 49.815 27.493 49.8773 28.0132Z" fill="white"/>
</g>
<path d="M27.4982 33.291C27.2889 32.6973 27.2112 32.0866 26.8729 31.5494C26.7909 31.417 26.5902 31.4426 26.5449 31.5921C26.1691 32.8263 26.7132 34.3203 27.3316 35.3965C27.8398 36.2806 28.6453 37.7216 29.7515 37.8488C29.8873 37.8642 30.0103 37.719 30.0077 37.5926C29.9829 36.5975 28.8691 35.7638 28.36 34.9771C28.0167 34.4484 27.7074 33.8863 27.4982 33.291ZM31.0942 17.6512C29.602 18.5652 28.5411 20.042 27.8937 21.6479C27.1189 23.5689 27.1804 25.5839 26.7115 27.563C26.6022 28.0259 25.8163 28.0652 25.7343 27.563C25.3875 25.4079 25.9077 22.912 26.7721 20.9295C27.552 19.1392 28.8307 17.6598 30.5587 16.7347C31.1608 16.4127 31.6768 17.2942 31.0942 17.6512Z" fill="white"/>
<path d="M32.1423 5.4922C32.4805 6.02947 32.5583 6.6402 32.7675 7.23384C32.9768 7.8292 33.286 8.39124 33.6294 8.91997C34.1385 9.70665 35.2523 10.5403 35.2771 11.5354C35.2796 11.6618 35.1566 11.8071 35.0208 11.7917C33.9147 11.6644 33.1092 10.2234 32.601 9.33936C31.9826 8.26311 31.4385 6.76918 31.8143 5.53491C31.8596 5.38543 32.0603 5.3598 32.1423 5.4922Z" fill="white"/>
<mask id="mask2_84_2717" style="mask-type:luminance" maskUnits="userSpaceOnUse" x="34" y="6" width="6" height="7">
<path d="M34.768 6.33865H39.5787V12.4613H34.768V6.33865Z" fill="white"/>
</mask>
<g mask="url(#mask2_84_2717)">
<mask id="mask3_84_2717" style="mask-type:luminance" maskUnits="userSpaceOnUse" x="16" y="-2" width="35" height="21">
<path d="M16.822 10.9153L47.8598 -1.34457L50.7384 5.94318L19.7005 18.2022L16.822 10.9153Z" fill="white"/>
</mask>
<g mask="url(#mask3_84_2717)">
<mask id="mask4_84_2717" style="mask-type:luminance" maskUnits="userSpaceOnUse" x="16" y="-2" width="50" height="58">
<path d="M16.822 10.9153L47.8598 -1.34457L65.3429 42.9183L34.305 55.1782L16.822 10.9153Z" fill="white"/>
</mask>
<g mask="url(#mask4_84_2717)">
<path d="M34.9098 12.3947C34.9098 12.3947 33.913 8.19391 39.3933 6.35831C39.9502 10.4258 36.5131 12.856 34.9098 12.3947Z" fill="#CAE894"/>
</g>
</g>
</g>
<mask id="mask5_84_2717" style="mask-type:luminance" maskUnits="userSpaceOnUse" x="33" y="10" width="2" height="2">
<path d="M33.6747 10.9307H34.5493V11.8053H33.6747V10.9307Z" fill="white"/>
</mask>
<g mask="url(#mask5_84_2717)">
<mask id="mask6_84_2717" style="mask-type:luminance" maskUnits="userSpaceOnUse" x="16" y="-2" width="35" height="21">
<path d="M16.822 10.9153L47.8598 -1.34457L50.7384 5.94318L19.7005 18.2022L16.822 10.9153Z" fill="white"/>
</mask>
<g mask="url(#mask6_84_2717)">
<mask id="mask7_84_2717" style="mask-type:luminance" maskUnits="userSpaceOnUse" x="16" y="-2" width="50" height="58">
<path d="M16.822 10.9153L47.8598 -1.34457L65.3429 42.9183L34.305 55.1782L16.822 10.9153Z" fill="white"/>
</mask>
<g mask="url(#mask7_84_2717)">
<mask id="mask8_84_2717" style="mask-type:luminance" maskUnits="userSpaceOnUse" x="19" y="6" width="46" height="46">
<path d="M19.7979 18.6293L50.8349 6.36942L64.0096 39.7238L32.9717 51.9828L19.7979 18.6293Z" fill="white"/>
</mask>
<g mask="url(#mask8_84_2717)">
<mask id="mask9_84_2717" style="mask-type:luminance" maskUnits="userSpaceOnUse" x="24" y="10" width="35" height="38">
<path d="M57.365 22.9855C60.8167 31.7245 56.4972 46.3282 48.1408 44.9214C41.8157 51.724 29.8677 43.9493 26.4151 35.2104C22.9634 26.4705 25.0698 13.4137 35.1746 13.4573C43.9862 6.47961 53.9133 14.2465 57.365 22.9855Z" fill="white"/>
</mask>
<g mask="url(#mask9_84_2717)">
<path d="M34.5058 11.2997C34.5237 11.3441 34.5314 11.3902 34.5305 11.4381C34.5297 11.485 34.5203 11.5312 34.5015 11.5747C34.4827 11.6183 34.4562 11.6567 34.4221 11.6892C34.3879 11.7225 34.3486 11.7481 34.3042 11.7652C34.2598 11.7831 34.2137 11.7908 34.1667 11.79C34.1188 11.7891 34.0736 11.7797 34.03 11.7609C33.9856 11.7421 33.948 11.7157 33.9147 11.6815C33.8814 11.6473 33.8566 11.608 33.8387 11.5636C33.8216 11.5192 33.813 11.4731 33.8139 11.4261C33.8148 11.3783 33.8242 11.333 33.8429 11.2894C33.8626 11.245 33.8891 11.2074 33.9232 11.1741C33.9574 11.1408 33.9967 11.116 34.0403 11.0981C34.0847 11.081 34.1308 11.0725 34.1786 11.0733C34.2256 11.0742 34.2717 11.0836 34.3153 11.1024C34.3589 11.122 34.3973 11.1485 34.4298 11.1827C34.4631 11.2168 34.4887 11.2561 34.5058 11.2997Z" fill="#390F23"/>
</g>
</g>
</g>
</g>
</g>
<mask id="mask10_84_2717" style="mask-type:luminance" maskUnits="userSpaceOnUse" x="35" y="11" width="2" height="2">
<path d="M35.424 11.8053H36.2987V12.68H35.424V11.8053Z" fill="white"/>
</mask>
<g mask="url(#mask10_84_2717)">
<mask id="mask11_84_2717" style="mask-type:luminance" maskUnits="userSpaceOnUse" x="16" y="-2" width="35" height="21">
<path d="M16.822 10.9153L47.8598 -1.34457L50.7384 5.94318L19.7005 18.2022L16.822 10.9153Z" fill="white"/>
</mask>
<g mask="url(#mask11_84_2717)">
<mask id="mask12_84_2717" style="mask-type:luminance" maskUnits="userSpaceOnUse" x="16" y="-2" width="50" height="58">
<path d="M16.822 10.9153L47.8598 -1.34457L65.3429 42.9183L34.305 55.1782L16.822 10.9153Z" fill="white"/>
</mask>
<g mask="url(#mask12_84_2717)">
<mask id="mask13_84_2717" style="mask-type:luminance" maskUnits="userSpaceOnUse" x="19" y="6" width="46" height="46">
<path d="M19.7979 18.6293L50.8349 6.36942L64.0096 39.7238L32.9717 51.9828L19.7979 18.6293Z" fill="white"/>
</mask>
<g mask="url(#mask13_84_2717)">
<mask id="mask14_84_2717" style="mask-type:luminance" maskUnits="userSpaceOnUse" x="24" y="10" width="35" height="38">
<path d="M57.365 22.9855C60.8167 31.7245 56.4972 46.3282 48.1408 44.9214C41.8157 51.724 29.8677 43.9493 26.4151 35.2104C22.9634 26.4705 25.0698 13.4137 35.1746 13.4573C43.9862 6.47961 53.9133 14.2465 57.365 22.9855Z" fill="white"/>
</mask>
<g mask="url(#mask14_84_2717)">
<path d="M36.1492 12.1453C36.1663 12.1897 36.1748 12.235 36.174 12.2828C36.1731 12.3307 36.1637 12.3759 36.1441 12.4195C36.1253 12.463 36.0988 12.5015 36.0646 12.5348C36.0305 12.5673 35.9912 12.5929 35.9476 12.61C35.9032 12.6279 35.8571 12.6364 35.8093 12.6356C35.7623 12.6347 35.7161 12.6245 35.6726 12.6057C35.629 12.5869 35.5906 12.5604 35.5581 12.5263C35.5248 12.4921 35.4992 12.4528 35.4821 12.4084C35.4642 12.364 35.4565 12.3187 35.4565 12.2709C35.4573 12.223 35.4676 12.1778 35.4864 12.1342C35.5052 12.0906 35.5316 12.0522 35.5658 12.0189C35.6 11.9864 35.6393 11.9608 35.6837 11.9437C35.7281 11.9258 35.7742 11.9172 35.8212 11.9181C35.869 11.9189 35.9143 11.9292 35.9579 11.948C36.0014 11.9668 36.0399 11.9933 36.0732 12.0274C36.1065 12.0616 36.1313 12.1009 36.1492 12.1453Z" fill="#390F23"/>
</g>
</g>
</g>
</g>
</g>
<mask id="mask15_84_2717" style="mask-type:luminance" maskUnits="userSpaceOnUse" x="34" y="10" width="2" height="2">
<path d="M34.9867 10.712H35.424V11.1493H34.9867V10.712Z" fill="white"/>
</mask>
<g mask="url(#mask15_84_2717)">
<mask id="mask16_84_2717" style="mask-type:luminance" maskUnits="userSpaceOnUse" x="16" y="-2" width="35" height="21">
<path d="M16.822 10.9153L47.8598 -1.34454L50.7384 5.94321L19.7005 18.2022L16.822 10.9153Z" fill="white"/>
</mask>
<g mask="url(#mask16_84_2717)">
<mask id="mask17_84_2717" style="mask-type:luminance" maskUnits="userSpaceOnUse" x="16" y="-2" width="50" height="58">
<path d="M16.822 10.9153L47.8598 -1.34454L65.3429 42.9184L34.305 55.1782L16.822 10.9153Z" fill="white"/>
</mask>
<g mask="url(#mask17_84_2717)">
<mask id="mask18_84_2717" style="mask-type:luminance" maskUnits="userSpaceOnUse" x="19" y="6" width="46" height="46">
<path d="M19.7979 18.6293L50.8349 6.36945L64.0096 39.7238L32.9717 51.9828L19.7979 18.6293Z" fill="white"/>
</mask>
<g mask="url(#mask18_84_2717)">
<mask id="mask19_84_2717" style="mask-type:luminance" maskUnits="userSpaceOnUse" x="24" y="10" width="35" height="38">
<path d="M57.365 22.9856C60.8167 31.7245 56.4972 46.3282 48.1408 44.9214C41.8157 51.724 29.8677 43.9494 26.4151 35.2104C22.9634 26.4706 25.0698 13.4138 35.1746 13.4573C43.9862 6.47964 53.9133 14.2466 57.365 22.9856Z" fill="white"/>
</mask>
<g mask="url(#mask19_84_2717)">
<path d="M35.3326 10.765C35.348 10.8034 35.3471 10.8419 35.3309 10.8803C35.3138 10.9187 35.2865 10.9452 35.2481 10.9606C35.2088 10.976 35.1703 10.9751 35.1319 10.9589C35.0935 10.9426 35.067 10.9145 35.0516 10.876C35.0362 10.8367 35.0371 10.7983 35.0533 10.7599C35.0695 10.7214 35.0977 10.6949 35.1362 10.6796C35.1755 10.6642 35.2139 10.665 35.2523 10.6813C35.2908 10.6984 35.3173 10.7257 35.3326 10.765Z" fill="#390F23"/>
</g>
</g>
</g>
</g>
</g>
<mask id="mask20_84_2717" style="mask-type:luminance" maskUnits="userSpaceOnUse" x="35" y="10" width="2" height="2">
<path d="M35.6427 10.9307H36.08V11.368H35.6427V10.9307Z" fill="white"/>
</mask>
<g mask="url(#mask20_84_2717)">
<mask id="mask21_84_2717" style="mask-type:luminance" maskUnits="userSpaceOnUse" x="16" y="-2" width="35" height="21">
<path d="M16.822 10.9153L47.8598 -1.34457L50.7384 5.94318L19.7005 18.2022L16.822 10.9153Z" fill="white"/>
</mask>
<g mask="url(#mask21_84_2717)">
<mask id="mask22_84_2717" style="mask-type:luminance" maskUnits="userSpaceOnUse" x="16" y="-2" width="50" height="58">
<path d="M16.822 10.9153L47.8598 -1.34457L65.3429 42.9183L34.305 55.1782L16.822 10.9153Z" fill="white"/>
</mask>
<g mask="url(#mask22_84_2717)">
<mask id="mask23_84_2717" style="mask-type:luminance" maskUnits="userSpaceOnUse" x="19" y="6" width="46" height="46">
<path d="M19.7979 18.6293L50.8349 6.36942L64.0096 39.7238L32.9717 51.9828L19.7979 18.6293Z" fill="white"/>
</mask>
<g mask="url(#mask23_84_2717)">
<mask id="mask24_84_2717" style="mask-type:luminance" maskUnits="userSpaceOnUse" x="24" y="10" width="35" height="38">
<path d="M57.365 22.9855C60.8167 31.7245 56.4972 46.3282 48.1408 44.9214C41.8157 51.724 29.8677 43.9493 26.4151 35.2104C22.9634 26.4705 25.0698 13.4137 35.1746 13.4573C43.9862 6.47961 53.9133 14.2465 57.365 22.9855Z" fill="white"/>
</mask>
<g mask="url(#mask24_84_2717)">
<path d="M36.01 11.0912C36.0177 11.1117 36.0168 11.1314 36.0083 11.151C35.9997 11.1707 35.9861 11.1852 35.9656 11.1929C35.9459 11.2006 35.9254 11.2006 35.9058 11.192C35.8861 11.1835 35.8724 11.169 35.8648 11.1493C35.8562 11.1288 35.8571 11.1092 35.8656 11.0895C35.8742 11.0699 35.8887 11.0554 35.9083 11.0477C35.928 11.04 35.9485 11.04 35.9681 11.0485C35.9878 11.0571 36.0014 11.0716 36.01 11.0912Z" fill="#390F23"/>
</g>
</g>
</g>
</g>
</g>
<mask id="mask25_84_2717" style="mask-type:luminance" maskUnits="userSpaceOnUse" x="34" y="12" width="1" height="1">
<path d="M34.768 12.024H34.9867V12.4613H34.768V12.024Z" fill="white"/>
</mask>
<g mask="url(#mask25_84_2717)">
<mask id="mask26_84_2717" style="mask-type:luminance" maskUnits="userSpaceOnUse" x="16" y="-2" width="35" height="21">
<path d="M16.822 10.9153L47.8598 -1.34457L50.7384 5.94318L19.7005 18.2022L16.822 10.9153Z" fill="white"/>
</mask>
<g mask="url(#mask26_84_2717)">
<mask id="mask27_84_2717" style="mask-type:luminance" maskUnits="userSpaceOnUse" x="16" y="-2" width="50" height="58">
<path d="M16.822 10.9153L47.8598 -1.34457L65.3429 42.9183L34.305 55.1782L16.822 10.9153Z" fill="white"/>
</mask>
<g mask="url(#mask27_84_2717)">
<mask id="mask28_84_2717" style="mask-type:luminance" maskUnits="userSpaceOnUse" x="19" y="6" width="46" height="46">
<path d="M19.7979 18.6293L50.8349 6.36942L64.0096 39.7238L32.9717 51.9828L19.7979 18.6293Z" fill="white"/>
</mask>
<g mask="url(#mask28_84_2717)">
<mask id="mask29_84_2717" style="mask-type:luminance" maskUnits="userSpaceOnUse" x="24" y="10" width="35" height="38">
<path d="M57.365 22.9855C60.8167 31.7245 56.4972 46.3282 48.1408 44.9214C41.8157 51.724 29.8677 43.9493 26.4151 35.2104C22.9634 26.4705 25.0698 13.4137 35.1746 13.4573C43.9862 6.47961 53.9133 14.2465 57.365 22.9855Z" fill="white"/>
</mask>
<g mask="url(#mask29_84_2717)">
<path d="M34.9243 12.1667C34.932 12.1863 34.932 12.2068 34.9226 12.2264C34.9141 12.2461 34.9004 12.2598 34.8799 12.2674C34.8603 12.276 34.8398 12.2751 34.8201 12.2666C34.8005 12.258 34.7868 12.2444 34.7791 12.2239C34.7706 12.2042 34.7714 12.1837 34.78 12.1641C34.7885 12.1444 34.803 12.1308 34.8227 12.1231C34.8432 12.1145 34.8628 12.1154 34.8825 12.1239C34.9021 12.1325 34.9158 12.1462 34.9243 12.1667Z" fill="#390F23"/>
</g>
</g>
</g>
</g>
</g>
<mask id="mask30_84_2717" style="mask-type:luminance" maskUnits="userSpaceOnUse" x="36" y="10" width="2" height="1">
<path d="M36.736 10.712H37.1733V10.9307H36.736V10.712Z" fill="white"/>
</mask>
<g mask="url(#mask30_84_2717)">
<mask id="mask31_84_2717" style="mask-type:luminance" maskUnits="userSpaceOnUse" x="16" y="-2" width="35" height="21">
<path d="M16.822 10.9153L47.8598 -1.34454L50.7384 5.94321L19.7005 18.2022L16.822 10.9153Z" fill="white"/>
</mask>
<g mask="url(#mask31_84_2717)">
<mask id="mask32_84_2717" style="mask-type:luminance" maskUnits="userSpaceOnUse" x="16" y="-2" width="50" height="58">
<path d="M16.822 10.9153L47.8598 -1.34454L65.3429 42.9184L34.305 55.1782L16.822 10.9153Z" fill="white"/>
</mask>
<g mask="url(#mask32_84_2717)">
<mask id="mask33_84_2717" style="mask-type:luminance" maskUnits="userSpaceOnUse" x="19" y="6" width="46" height="46">
<path d="M19.7979 18.6293L50.8349 6.36945L64.0096 39.7238L32.9717 51.9828L19.7979 18.6293Z" fill="white"/>
</mask>
<g mask="url(#mask33_84_2717)">
<mask id="mask34_84_2717" style="mask-type:luminance" maskUnits="userSpaceOnUse" x="24" y="10" width="35" height="38">
<path d="M57.365 22.9856C60.8167 31.7245 56.4972 46.3282 48.1408 44.9214C41.8157 51.724 29.8677 43.9494 26.4151 35.2104C22.9634 26.4706 25.0698 13.4138 35.1746 13.4573C43.9862 6.47964 53.9133 14.2466 57.365 22.9856Z" fill="white"/>
</mask>
<g mask="url(#mask34_84_2717)">
<path d="M37.082 10.5557C37.0973 10.595 37.0965 10.6335 37.0794 10.6719C37.0632 10.7095 37.035 10.7368 36.9965 10.7522C36.9572 10.7676 36.9188 10.7667 36.8804 10.7505C36.8428 10.7334 36.8155 10.7061 36.8001 10.6668C36.7847 10.6283 36.7856 10.5899 36.8018 10.5515C36.8189 10.513 36.8462 10.4857 36.8855 10.4703C36.9239 10.4549 36.9624 10.4558 37.0008 10.4729C37.0392 10.4891 37.0666 10.5173 37.082 10.5557Z" fill="#390F23"/>
</g>
</g>
</g>
</g>
</g>
<mask id="mask35_84_2717" style="mask-type:luminance" maskUnits="userSpaceOnUse" x="22" y="8" width="13" height="6">
<path d="M22.7413 8.52533H34.3307V13.5547H22.7413V8.52533Z" fill="white"/>
</mask>
<g mask="url(#mask35_84_2717)">
<mask id="mask36_84_2717" style="mask-type:luminance" maskUnits="userSpaceOnUse" x="16" y="-2" width="35" height="21">
<path d="M16.822 10.9153L47.8598 -1.34457L50.7384 5.94318L19.7005 18.2022L16.822 10.9153Z" fill="white"/>
</mask>
<g mask="url(#mask36_84_2717)">
<mask id="mask37_84_2717" style="mask-type:luminance" maskUnits="userSpaceOnUse" x="16" y="-2" width="50" height="58">
<path d="M16.822 10.9153L47.8598 -1.34457L65.3429 42.9183L34.305 55.1782L16.822 10.9153Z" fill="white"/>
</mask>
<g mask="url(#mask37_84_2717)">
<path d="M34.1735 11.4321C34.1735 11.4321 29.7156 16.1522 22.8857 10.7795C27.5383 6.72219 33.4287 9.03613 34.1735 11.4321Z" fill="#CAE894"/>
</g>
</g>
</g>
</g>
<defs>
<clipPath id="clip0_84_2717">
<rect width="82" height="75" fill="white"/>
</clipPath>
</defs>
</svg>
